<svg version="1.1" xmlns="http://www.w3.org/2000/svg" xmlns:xlink="http://www.w3.org/1999/xlink" x="0px" y="0px" width="194.94px" height="44.59px" viewBox="0 0 194.94 44.59" style="overflow:visible;enable-background:new 0 0 194.94 44.59;" xml:space="preserve">
<style type="text/css">
	.c1{fill:#FFFFFF;}
	.c2{fill:#FCC306;}
</style>
<path class="c1" d="M16.19,43.1l-0.57,1.35h-1.13l2.62-6.02h0.99l2.62,6.02h-1.13l-0.57-1.35H16.19z M17.64,39.7l-1.03,2.44h2.05  L17.64,39.7z M29.75,42.11h1.1c-0.28,1.49-1.42,2.44-2.9,2.44c-1.74,0-3.12-1.31-3.12-3.12c0-1.81,1.38-3.12,3.12-3.12  c1.52,0,2.62,0.96,2.9,2.44h-1.1c-0.21-0.92-0.89-1.45-1.84-1.45c-1.17,0-2.05,0.85-2.05,2.13c0,1.24,0.89,2.12,2.05,2.12  C28.87,43.56,29.5,43.03,29.75,42.11z M38,39.42v5.03h-1.06v-5.03h-2.09v-0.99h5.24v0.99H38z M45.19,44.45h-1.06v-5.99h1.06V44.45z   M52.92,44.48h-0.96l-2.73-6.02h1.17l2.05,4.61l2.05-4.61h1.17L52.92,44.48z M65.91,41.44c0,1.73-1.38,3.12-3.12,3.12  c-1.73,0-3.12-1.38-3.12-3.12c0-1.74,1.38-3.12,3.12-3.12C64.5,38.32,65.91,39.7,65.91,41.44z M64.85,41.44  c0-1.17-0.89-2.13-2.05-2.13c-1.17,0-2.05,0.96-2.05,2.13c0,1.17,0.89,2.12,2.05,2.12C63.97,43.56,64.85,42.61,64.85,41.44z   M74.88,40.2h-1.06c-0.1-0.6-0.49-0.99-1.31-0.99c-0.71,0-1.2,0.32-1.2,0.89c0,0.46,0.35,0.67,0.96,0.81L73,41.05  c1.13,0.21,1.81,0.67,1.81,1.67c0,1.13-0.92,1.88-2.3,1.88c-1.49,0-2.48-0.78-2.59-2.09h1.06c0.11,0.71,0.67,1.13,1.59,1.13  c0.74,0,1.17-0.32,1.17-0.81c0-0.32-0.21-0.64-0.89-0.74l-0.99-0.18c-1.17-0.21-1.7-0.82-1.7-1.7c0-1.13,0.89-1.88,2.23-1.88  C73.49,38.32,74.73,38.78,74.88,40.2z M85.61,44.45h-1.06v-5.99h1.06V44.45z M94.96,44.45h-0.85l-3.4-4.04v4.04h-1.06v-5.99h0.81  l3.44,4.15v-4.15h1.06V44.45z M102.15,39.42v5.03h-1.06v-5.03H99v-0.99h5.24v0.99H102.15z M109.3,40.98h2.94v0.99h-2.94v1.49h3.29  v0.99h-4.36v-5.99h4.36v0.99h-3.29V40.98z M120.85,44.45h-4.22v-5.99h1.06v5.03h3.15L120.85,44.45L120.85,44.45z M125.95,44.45  h-1.06v-5.99h1.06V44.45z M141.18,40.98h2.94v0.99h-2.94v1.49h3.29v0.99h-4.32v-5.99h4.35v0.99h-3.29v1.52L141.18,40.98  L141.18,40.98z M153.82,44.45h-0.82l-3.4-4.04v4.04h-1.06v-5.99h0.81l3.44,4.15v-4.15h1.06v5.99H153.82z M161.01,39.42v5.03h-1.06  v-5.03h-2.09v-0.99h5.24v0.99H161.01z M168.17,40.98h2.94v0.99h-2.94v1.49h3.29v0.99h-4.36v-5.99h4.36v0.99h-3.29V40.98z   M180.42,40.2h-1.06c-0.1-0.6-0.49-0.99-1.31-0.99c-0.71,0-1.2,0.32-1.2,0.89c0,0.46,0.35,0.67,0.96,0.81l0.74,0.14  c1.13,0.21,1.81,0.67,1.81,1.67c0,1.13-0.92,1.88-2.3,1.88c-1.49,0-2.48-0.78-2.59-2.09h1.06c0.1,0.71,0.67,1.13,1.59,1.13  c0.74,0,1.17-0.32,1.17-0.81c0-0.32-0.21-0.64-0.89-0.74l-0.99-0.18c-1.17-0.21-1.7-0.82-1.7-1.7c0-1.13,0.89-1.88,2.23-1.88  C179.04,38.32,180.28,38.78,180.42,40.2z M133.03,41.16v0.99h1.88c-0.25,0.85-0.96,1.35-1.84,1.42c-1.2-0.04-2.02-0.96-2.02-2.02  c0-1.35,0.89-2.2,2.09-2.2c0.64,0,1.45,0.25,1.77,1.17h1.13c-0.35-1.49-1.63-2.2-2.9-2.2c-1.74,0-3.15,1.31-3.15,3.19  c0,1.59,1.24,2.98,2.97,3.05l0,0c0.04,0,0.04,0,0.07,0c0.03,0,0.03,0,0.07,0l0,0c1.63-0.07,2.94-1.31,3.01-3.12l0,0v-0.28  L133.03,41.16L133.03,41.16z M100.55,31.24l14.7-30.39h-10.09l-8.29,20.79l-4-20.79h-9.78l8,30.39H100.55z M28.9,25.39  c-0.07,0.11-0.14,0.21-0.21,0.32c-0.89,1.17-1.91,2.23-3.12,3.12c-1.38,1.03-2.97,1.84-4.78,2.41c-1.77,0.57-3.75,0.85-5.88,0.85  c-2.48,0-4.68-0.39-6.55-1.13c-1.88-0.74-3.4-1.77-4.64-3.08s-2.16-2.83-2.76-4.53C0.32,21.61,0,19.76,0,17.78  c0-2.3,0.42-4.53,1.28-6.69c0.85-2.16,2.05-4.04,3.61-5.67c1.56-1.63,3.47-2.94,5.67-3.93C12.79,0.5,15.27,0,18.06,0  c2.16,0,4.11,0.32,5.84,0.92s3.19,1.42,4.36,2.48c1.2,1.03,2.09,2.27,2.73,3.61c0.25,0.5,0.42,1.03,0.57,1.52  c0.14,0.49,0.25,0.99,0.28,1.52c0.03,0.42,0.07,0.89,0.07,1.31h-0.42h-9.56c-0.03-0.35-0.11-0.67-0.25-1.03  c-0.04-0.11-0.07-0.18-0.11-0.28c-0.21-0.42-0.5-0.81-0.92-1.17c-0.39-0.35-0.92-0.64-1.52-0.85c-0.6-0.21-1.31-0.32-2.12-0.32  c-1.31,0-2.44,0.28-3.44,0.82c-0.99,0.57-1.81,1.27-2.44,2.16c-0.64,0.89-1.1,1.91-1.42,3.05s-0.46,2.27-0.46,3.44  c0,1.03,0.14,2.02,0.42,2.94c0.28,0.92,0.67,1.7,1.2,2.37c0.53,0.67,1.21,1.2,2.05,1.56c0.81,0.39,1.81,0.57,2.94,0.57  c1.7,0,3.08-0.39,4.11-1.2c0,0,0.89-0.71,1.28-1.77h-3.97l0.11-5.21h13.1h1.1c-0.21,1.81-0.6,3.97-1.24,5.95  C29.93,23.45,29.5,24.47,28.9,25.39z M80.05,0.85h-9.46l-13.42,28.3l-3.97-7.15c2.05-1.1,3.68-2.62,4.89-4.53  c1.2-1.91,1.81-4.04,1.81-6.38c0-1.38-0.25-2.69-0.71-3.97c-0.46-1.24-1.13-2.34-2.02-3.29c-0.89-0.96-1.95-1.67-3.22-2.23  c-1.28-0.53-2.73-0.82-4.36-0.82H35L31.77,31.2h9.03l0.82-7.79h1.7l4.36,7.79h8.47h2.16h7.61l1.42-3.51h8.89l-1.17-6.52h-5.14  l4.43-11.19l1.91,10.7l1.42,7.61l0.57,2.98h10.09L80.05,0.85z M50.29,13.57c-0.25,0.57-0.53,1.1-0.92,1.52  c-0.39,0.42-0.89,0.78-1.42,1.03c-0.57,0.25-1.17,0.35-1.81,0.35H42.4l0.92-8.61h3.79c1.1,0,1.98,0.39,2.62,1.13  c0.64,0.74,0.96,1.67,0.96,2.73C50.65,12.4,50.54,13,50.29,13.57z M156.34,0.85l-1.91,18.03l-8.01-18.03h-9.21l-2.73,25.82  l-7.01-25.82h-9.46L103.6,31.24h9.77l1.38-3.36l2.62-6.69l0,0l0.18-0.46v-0.07l0,0l4.25-10.7l1.98,11.23h-4.85l-2.55,6.55h8.61  l0.67,3.51h8.32h1.74h7.3l1.84-17.39l8.11,17.39h9.21l3.22-30.39H156.34z M186.62,12.47c-0.04-7.44-6.69-11.65-13.95-11.65h-5.14  l-0.78,7.37h13.35L163.63,31.2h6.41h3.22h13.85l4.57-7.37h-13.14L186.62,12.47z"/>
<path class="c2" d="M191.68,0.81h-9.56c-0.14,0-0.18,0.21-0.07,0.25c3.9,1.7,5.53,5.49,4.57,11.4l8.32-11.65L191.68,0.81  L191.68,0.81z"/>
</svg>
