<svg xmlns="http://www.w3.org/2000/svg" style="overflow:visible;enable-background:new 0 0 200 21.15" xml:space="preserve" viewBox="0 0 200 21.15"><style>.st0{fill:#fff}.st1{fill:#47c278}</style><g id="XMLID_1_"><g id="XMLID_308_"><path id="XMLID_327_" class="st0" d="M40.13 3.19a.643.643 0 0 1-.07-.31c0-.11.07-.25.22-.42.14-.17.35-.25.61-.25h2.56c.61 0 1.07.37 1.39 1.11l4.52 10.06 4.52-10.06c.32-.73.78-1.1 1.39-1.11h2.56c.27 0 .48.08.62.25.14.17.21.31.21.42 0 .11-.02.22-.06.31l-6.72 14.57c-.37.79-.92 1.19-1.67 1.19h-1.68c-.75 0-1.3-.4-1.67-1.19L40.13 3.19z"/><path id="XMLID_325_" class="st0" d="M60.79 17.87V3.32c0-.3.11-.56.33-.78.22-.22.48-.33.78-.33h2.17c.32 0 .59.11.8.33.21.22.32.48.32.78v14.53c0 .3-.11.56-.33.78-.22.21-.48.32-.79.32H61.9c-.3 0-.56-.1-.78-.31-.22-.21-.33-.47-.33-.77z"/><path id="XMLID_323_" class="st0" d="M67.82 14.66c0-.46.14-.79.41-.99.27-.2.54-.3.79-.3h1.39c.7 0 1.23.38 1.6 1.14.37.76 1.19 1.14 2.46 1.14l4.08.08c1.37 0 2.05-.45 2.05-1.34 0-.68-.84-1.21-2.51-1.6-.75-.18-1.57-.36-2.47-.53-.9-.18-1.8-.4-2.69-.66-.89-.26-1.71-.58-2.46-.93-.75-.36-1.35-.85-1.81-1.48-.46-.63-.69-1.36-.69-2.21 0-1.56.56-2.77 1.67-3.61 1.11-.84 3.03-1.27 5.74-1.27l2.96.07c1.59 0 3.03.41 4.31 1.23 1.28.82 1.92 1.85 1.92 3.08 0 .46-.14.79-.41.99s-.53.3-.78.3h-1.39c-.7 0-1.23-.38-1.6-1.15-.37-.77-1.19-1.15-2.46-1.15l-3.51-.07c-1.37 0-2.05.45-2.05 1.34 0 .49.43.89 1.3 1.2.87.31 1.92.59 3.15.82 1.23.24 2.47.52 3.72.86 1.24.33 2.3.89 3.17 1.65.87.77 1.3 1.72 1.3 2.87 0 1.56-.56 2.77-1.67 3.61-1.12.84-3.03 1.27-5.74 1.27l-3.54-.07c-1.6 0-3.03-.41-4.32-1.23-1.27-.8-1.92-1.83-1.92-3.06z"/><path id="XMLID_321_" class="st0" d="M85.85 4.41v-1.1c0-.32.1-.58.32-.79.21-.21.47-.32.79-.32h14.81c.32 0 .58.11.79.32.21.21.31.47.31.79v1.1c0 .32-.1.58-.31.79-.21.21-.47.31-.79.31h-5.21v12.36c0 .3-.11.56-.32.76-.21.21-.47.31-.78.31h-2.21c-.3 0-.56-.1-.78-.31-.21-.21-.32-.46-.32-.76V5.51h-5.21c-.32 0-.58-.1-.79-.31-.19-.2-.3-.47-.3-.79z"/><path id="XMLID_318_" class="st0" d="m102.71 17.87 2.93-11.11c.79-3.03 3.38-4.54 7.75-4.55h6.29c.29 0 .53.11.72.33.19.22.29.47.29.76v14.58c0 .3-.11.56-.33.76-.22.21-.48.31-.78.31h-2.19c-.32 0-.58-.1-.79-.31-.21-.21-.31-.47-.31-.79v-2.94h-8.3l-.78 2.94c-.08.32-.25.58-.53.79s-.56.31-.86.31h-2.3c-.3 0-.52-.09-.65-.26-.13-.18-.2-.33-.19-.46-.01-.14.01-.26.03-.36zm6.14-6.27h7.43V5.51h-3.33c-.75 0-1.4.21-1.96.64-.56.42-.93.99-1.13 1.71l-1.01 3.74z"/><path id="XMLID_316_" class="st0" d="M125.37 16.95c-1.38-1.39-2.07-3.52-2.07-6.39 0-2.87.72-4.99 2.17-6.37 1.44-1.38 3.61-2.07 6.49-2.07h2.6c1.72 0 3.27.41 4.65 1.23 1.38.82 2.07 1.85 2.07 3.08 0 .46-.14.79-.41.99-.27.2-.54.3-.79.3h-1.39c-.67 0-1.2-.38-1.6-1.14-.4-.76-1.38-1.14-2.94-1.14h-2.08c-1.7 0-2.86.37-3.47 1.1-.61.73-.91 2.08-.91 4.04s.27 3.32.82 4.07c.54.75 1.52 1.13 2.92 1.13h2.39c1.25 0 2.15-.24 2.68-.72.54-.48.81-1.17.83-2.06h-2.64a1.097 1.097 0 0 1-1.1-1.1v-.91a1.097 1.097 0 0 1 1.1-1.1h5.86a1.097 1.097 0 0 1 1.1 1.1v1.3c0 2.18-.65 3.85-1.96 5.02-1.31 1.17-3.23 1.76-5.75 1.76h-2.63c-2.57-.03-4.55-.73-5.94-2.12z"/><path id="XMLID_314_" class="st0" d="M144.06 12.33V3.32c0-.3.11-.56.32-.78.21-.22.48-.33.8-.33h2.18c.3 0 .55.11.77.33.22.22.33.48.33.78v9.03c0 1.14.25 2 .75 2.56s1.28.84 2.33.84h1.87c1.05 0 1.83-.28 2.33-.84.5-.56.75-1.41.75-2.56V3.32c0-.3.11-.56.32-.78.21-.22.47-.33.78-.33h2.17c.32 0 .59.11.81.33.22.22.33.48.33.78v9.01c0 2.13-.63 3.78-1.88 4.95s-3.08 1.76-5.49 1.76h-2.1c-2.41 0-4.24-.59-5.49-1.76-1.26-1.17-1.88-2.82-1.88-4.95z"/><path id="XMLID_311_" class="st0" d="m162.62 17.87 2.93-11.11c.79-3.03 3.38-4.54 7.75-4.55h6.29c.29 0 .53.11.72.33.19.22.29.47.29.76v14.58c0 .3-.11.56-.33.76s-.48.31-.78.31h-2.19c-.32 0-.58-.1-.79-.31-.21-.21-.31-.47-.31-.79v-2.94h-8.3l-.78 2.94c-.08.32-.25.58-.53.79-.27.21-.56.31-.86.31h-2.3c-.3 0-.52-.09-.65-.26-.13-.18-.2-.33-.19-.46 0-.14.01-.26.03-.36zm6.14-6.27h7.43V5.51h-3.33c-.75 0-1.4.21-1.96.64-.56.42-.93.99-1.13 1.71l-1.01 3.74z"/><path id="XMLID_309_" class="st0" d="M182.74 2.77c0-.37.2-.56.61-.56h2.22c.88 0 1.56.37 2.03 1.11l3.78 5.82 3.77-5.82c.48-.74 1.16-1.11 2.03-1.11h2.23c.4 0 .6.19.6.56 0 .17-.06.35-.19.55l-6.24 9.65v4.9c0 .3-.11.56-.32.76-.21.21-.47.31-.78.31h-2.19c-.3 0-.56-.1-.78-.31-.22-.21-.33-.46-.33-.76v-4.9l-6.23-9.65c-.15-.2-.21-.38-.21-.55z"/></g><g id="XMLID_301_"><path id="XMLID_307_" class="st1" d="M21.5 14.86h9.81c.8-.89 1.52-1.85 2.14-2.88.52-.87.52-1.94 0-2.81a18.953 18.953 0 0 0-5.25-5.64l-5.59 9.45-1.11 1.88z"/><path id="XMLID_306_" class="st1" d="M18.41 4.54 15.74.01C11.4.27 7.43 1.93 4.34 4.54h14.07z"/><path class="st1" d="m13.36 16.61-2.53-4.3-3.7 6.26c2.63 1.52 5.67 2.44 8.91 2.58l-2.68-4.54z" id="XMLID_305_"/><path class="st1" d="M2.53 6.29c-.8.89-1.52 1.85-2.14 2.88-.52.87-.52 1.94 0 2.81 1.33 2.21 3.12 4.13 5.25 5.63l6.7-11.32H2.53z" id="XMLID_304_"/><path class="st1" d="m15.42 16.61 2.67 4.53a19.39 19.39 0 0 0 11.41-4.53H15.42z" id="XMLID_303_"/><path id="XMLID_302_" class="st1" d="m23 8.84 3.7-6.26A19.382 19.382 0 0 0 17.8 0L23 8.84z"/></g></g></svg>
