<svg id="vistaguay" xmlns="http://www.w3.org/2000/svg" width="473" height="50" viewBox="0 0 472.7 50"><path fill="#fff" d="M94.9 7.5c-0.1-0.2-0.2-0.5-0.2-0.7 0-0.3 0.2-0.6 0.5-1 0.3-0.4 0.8-0.6 1.5-0.6h6c1.4 0 2.5 0.9 3.3 2.6l10.7 23.8 10.7-23.8c0.8-1.7 1.9-2.6 3.3-2.6h6c0.6 0 1.1 0.2 1.5 0.6 0.3 0.4 0.5 0.7 0.5 1 0 0.3 0 0.5-0.1 0.7l-15.9 34.4c-0.9 1.9-2.2 2.8-3.9 2.8h-4c-1.8 0-3.1-0.9-3.9-2.8L94.9 7.5z"/><path fill="#fff" d="M143.7 42.2V7.8c0-0.7 0.3-1.3 0.8-1.8 0.5-0.5 1.1-0.8 1.9-0.8h5.1c0.8 0 1.4 0.3 1.9 0.8 0.5 0.5 0.8 1.1 0.8 1.9v34.3c0 0.7-0.3 1.3-0.8 1.8 -0.5 0.5-1.1 0.8-1.9 0.8h-5.1c-0.7 0-1.3-0.2-1.8-0.7S143.7 43 143.7 42.2z"/><path fill="#fff" d="M160.3 34.7c0-1.1 0.3-1.9 1-2.3 0.6-0.5 1.3-0.7 1.9-0.7h3.3c1.7 0 2.9 0.9 3.8 2.7 0.9 1.8 2.8 2.7 5.8 2.7l9.7 0.2c3.2 0 4.9-1.1 4.9-3.2 0-1.6-2-2.9-5.9-3.8 -1.8-0.4-3.7-0.8-5.8-1.3 -2.1-0.4-4.2-0.9-6.4-1.6 -2.1-0.6-4-1.4-5.8-2.2 -1.8-0.8-3.2-2-4.3-3.5 -1.1-1.5-1.6-3.2-1.6-5.2 0-3.7 1.3-6.5 4-8.5C167.2 6 171.8 5 178.2 5l7 0.2c3.8 0 7.2 1 10.2 2.9 3 1.9 4.5 4.4 4.5 7.3 0 1.1-0.3 1.9-1 2.3 -0.6 0.5-1.3 0.7-1.8 0.7h-3.3c-1.7 0-2.9-0.9-3.8-2.7 -0.9-1.8-2.8-2.7-5.8-2.7l-8.3-0.2c-3.2 0-4.9 1.1-4.9 3.2 0 1.2 1 2.1 3.1 2.8 2.1 0.7 4.5 1.4 7.5 1.9 2.9 0.6 5.8 1.2 8.8 2 2.9 0.8 5.4 2.1 7.5 3.9 2.1 1.8 3.1 4.1 3.1 6.8 0 3.7-1.3 6.5-4 8.5 -2.6 2-7.2 3-13.6 3l-8.4-0.2c-3.8 0-7.2-1-10.2-2.9C161.8 40 160.3 37.6 160.3 34.7z"/><path fill="#fff" d="M202.9 10.4V7.8c0-0.7 0.3-1.4 0.8-1.9 0.5-0.5 1.1-0.7 1.9-0.7h35c0.8 0 1.4 0.3 1.9 0.8 0.5 0.5 0.7 1.1 0.7 1.9v2.6c0 0.8-0.2 1.4-0.7 1.9 -0.5 0.5-1.1 0.7-1.9 0.7h-12.3v29.2c0 0.7-0.2 1.3-0.8 1.8 -0.5 0.5-1.1 0.7-1.8 0.7h-5.2c-0.7 0-1.3-0.2-1.8-0.7 -0.5-0.5-0.8-1.1-0.8-1.8V13h-12.3c-0.7 0-1.4-0.2-1.9-0.7C203.2 11.8 202.9 11.2 202.9 10.4z"/><path fill="#fff" d="M242.8 42.2l6.9-26.3c1.9-7.1 8-10.7 18.3-10.8h14.9c0.7 0 1.3 0.3 1.7 0.8 0.5 0.5 0.7 1.1 0.7 1.8v34.5c0 0.7-0.3 1.3-0.8 1.8 -0.5 0.5-1.1 0.7-1.8 0.7h-5.2c-0.8 0-1.4-0.2-1.9-0.7 -0.5-0.5-0.7-1.1-0.7-1.9v-6.9h-19.6l-1.8 7c-0.2 0.8-0.6 1.4-1.2 1.9 -0.6 0.5-1.3 0.7-2 0.7h-5.4c-0.7 0-1.2-0.2-1.5-0.6 -0.3-0.4-0.5-0.8-0.4-1.1C242.7 42.8 242.7 42.5 242.8 42.2zM257.3 27.4h17.6v-14.4h-7.9c-1.8 0-3.3 0.5-4.6 1.5 -1.3 1-2.2 2.4-2.7 4L257.3 27.4z"/><path fill="#fff" d="M296.3 40.1c-3.3-3.3-4.9-8.3-4.9-15.1 0-6.8 1.7-11.8 5.1-15.1 3.4-3.3 8.5-4.9 15.4-4.9h6.2c4.1 0 7.7 1 11 2.9s4.9 4.4 4.9 7.3c0 1.1-0.3 1.9-1 2.3 -0.6 0.5-1.3 0.7-1.9 0.7h-3.3c-1.6 0-2.8-0.9-3.8-2.7 -0.9-1.8-3.3-2.7-6.9-2.7h-4.9c-4 0-6.8 0.9-8.2 2.6 -1.4 1.7-2.1 4.9-2.1 9.6 0 4.6 0.6 7.8 1.9 9.6 1.3 1.8 3.6 2.7 6.9 2.7h5.7c3 0 5.1-0.6 6.3-1.7 1.3-1.1 1.9-2.7 2-4.9h-6.2c-0.7 0-1.3-0.2-1.8-0.8 -0.5-0.5-0.8-1.1-0.8-1.8v-2.1c0-0.7 0.3-1.3 0.8-1.8 0.5-0.5 1.1-0.8 1.8-0.8h13.9c0.7 0 1.3 0.3 1.8 0.8 0.5 0.5 0.8 1.1 0.8 1.8v3.1c0 5.2-1.5 9.1-4.6 11.9 -3.1 2.8-7.6 4.2-13.6 4.2h-6.2C304.3 45 299.6 43.4 296.3 40.1z"/><path fill="#fff" d="M340.5 29.1V7.8c0-0.7 0.3-1.3 0.8-1.8 0.5-0.5 1.1-0.8 1.9-0.8h5.2c0.7 0 1.3 0.3 1.8 0.8 0.5 0.5 0.8 1.1 0.8 1.9v21.4c0 2.7 0.6 4.7 1.8 6 1.2 1.3 3 2 5.5 2h4.4c2.5 0 4.3-0.7 5.5-2 1.2-1.3 1.8-3.3 1.8-6V7.8c0-0.7 0.3-1.3 0.8-1.8 0.5-0.5 1.1-0.8 1.8-0.8h5.1c0.8 0 1.4 0.3 1.9 0.8 0.5 0.5 0.8 1.1 0.8 1.9v21.3c0 5-1.5 8.9-4.4 11.7S368.6 45 362.9 45h-5c-5.7 0-10-1.4-13-4.1S340.5 34.2 340.5 29.1z"/><path fill="#fff" d="M384.4 42.2l6.9-26.3c1.9-7.1 8-10.7 18.3-10.8h14.9c0.7 0 1.3 0.3 1.7 0.8 0.5 0.5 0.7 1.1 0.7 1.8v34.5c0 0.7-0.3 1.3-0.8 1.8 -0.5 0.5-1.1 0.7-1.8 0.7h-5.2c-0.8 0-1.4-0.2-1.9-0.7 -0.5-0.5-0.7-1.1-0.7-1.9v-6.9h-19.6L395 42.2c-0.2 0.8-0.6 1.4-1.2 1.9 -0.6 0.5-1.3 0.7-2 0.7h-5.4c-0.7 0-1.2-0.2-1.5-0.6 -0.3-0.4-0.5-0.8-0.4-1.1C384.3 42.8 384.3 42.5 384.4 42.2zM398.9 27.4h17.6v-14.4h-7.9c-1.8 0-3.3 0.5-4.6 1.5 -1.3 1-2.2 2.4-2.7 4L398.9 27.4z"/><path fill="#fff" d="M431.9 6.5c0-0.9 0.5-1.3 1.4-1.3h5.2c2.1 0 3.7 0.9 4.8 2.6l8.9 13.8 8.9-13.8c1.1-1.7 2.7-2.6 4.8-2.6h5.3c0.9 0 1.4 0.4 1.4 1.3 0 0.4-0.1 0.8-0.4 1.3l-14.8 22.8v11.6c0 0.7-0.2 1.3-0.8 1.8 -0.5 0.5-1.1 0.7-1.8 0.7h-5.2c-0.7 0-1.3-0.2-1.8-0.7 -0.5-0.5-0.8-1.1-0.8-1.8V30.7L432.4 7.8C432.1 7.4 431.9 7 431.9 6.5z"/><path fill="#47C278" d="M50.8 35.1h23.2c1.9-2.1 3.6-4.4 5.1-6.8 1.2-2 1.2-4.6 0-6.6v0c-3.1-5.2-7.4-9.8-12.4-13.3L53.4 30.7 50.8 35.1z"/><path fill="#47C278" d="M43.5 10.7l-6.3-10.7c-10.3 0.6-19.6 4.5-26.9 10.7H43.5z"/><path fill="#47C278" d="M31.6 39.3L31.6 39.3 25.6 29.1l-8.7 14.8c6.2 3.6 13.4 5.8 21.1 6.1L31.6 39.3 31.6 39.3z"/><path fill="#47C278" d="M6 14.9c-1.9 2.1-3.6 4.4-5.1 6.8 -1.2 2.1-1.2 4.6 0 6.6 3.1 5.2 7.4 9.8 12.4 13.3l15.8-26.8H6z"/><path fill="#47C278" d="M36.5 39.3l6.3 10.7c10.3-0.6 19.7-4.5 27-10.7H36.5z"/><path fill="#47C278" d="M54.4 20.9L63.1 6.1C56.9 2.5 49.7 0.3 42.1 0L54.4 20.9z"/></svg>